<?xml version="1.0" encoding="utf-8"?>
<svg version="1.1" xmlns="http://www.w3.org/2000/svg" xmlns:xlink="http://www.w3.org/1999/xlink" x="0px" y="0px"
	 viewBox="0 0 141 141" xml:space="preserve">
   <defs><style>path{fill:#fff;}</style></defs>
  <path d="M22.8,57.6c3.4-12.6,11.7-23.4,23-29.9L35.2,9.4c-16.2,9.3-28,24.7-32.8,42.7L22.8,57.6z"/>
  <path d="M57.7,22.8c4.2-1.1,8.4-1.7,12.7-1.7V0c-6.1,0-12.3,0.8-18.2,2.4L57.7,22.8z"/>
  <path d="M83.3,22.8c12.6,3.4,23.3,11.7,29.9,23l18.3-10.6c-9.3-16.2-24.7-28-42.7-32.8L83.3,22.8z"/>
  <path d="M0,70.4c0,6.1,0.8,12.3,2.4,18.2l20.4-5.5c-1.1-4.2-1.7-8.4-1.7-12.7H0z"/>
  <path d="M9.4,105.6c3.1,5.3,6.8,10.2,11.2,14.5l15-14.9c-3-3-5.7-6.5-7.8-10.2L9.4,105.6z"/>
  <path d="M35.2,131.4c10.7,6.2,22.8,9.4,35.2,9.4v-21.1c-8.6,0-17.1-2.3-24.6-6.6L35.2,131.4z"/>
  <path d="M113.1,95.1c-6.6,11.3-17.3,19.5-29.9,22.9l5.5,20.4c18-4.8,33.4-16.6,42.8-32.8L113.1,95.1z"/>
  <path d="M138.5,89.3c3.3-11.9,3.3-24.5,0.2-36.5l-20.5,5.5c2.2,8.4,2.2,17.2-0.1,25.6L138.5,89.3z"/>
</svg>
